# xmcd
# 
# Track frame offsets:
#     150
#     8512
#     22912
#     33800
#     46537
#     57125
#     71750
#     85100
#     97825
#     108325
#     122812
#     131987
# 
# Disc length: 1956
# 
# Revision: 0
# Processed by: cddbd v1.5.2PL0 Copyright (c) Steve Scherf et al.
# Submitted via: fre:ac v1.0.17
# 
DISCID=8707a20c
DTITLE=Jim Reeves - Twelve Songs Of Christmas
DYEAR=0
DGENRE=
TTITLE0=Jingle Bells
TTITLE1=Blue Christmas
TTITLE2=Senor Santa Claus
TTITLE3=An Old Christmas Card
TTITLE4=The Merry Christmas Polka
TTITLE5=White Christmas
TTITLE6=Silver Bells
TTITLE7=C-H-R-I-S-T-M-A-S
TTITLE8=O Little Town Of Bethlehem
TTITLE9=Mary's Little Boy Child
TTITLE10=Oh Come, All Ye Faithful (Adeste Fideles)
TTITLE11=Silent Night
EXTD=
EXTT0=
EXTT1=
EXTT2=
EXTT3=
EXTT4=
EXTT5=
EXTT6=
EXTT7=
EXTT8=
EXTT9=
EXTT10=
EXTT11=
PLAYORDER=
